<svg version="1" xmlns="http://www.w3.org/2000/svg" width="682.667" height="682.667" viewBox="0 0 512.000000 512.000000"><path d="M0 256v256h512V0H0v256zM175.6 82.1c3.2 1.2 7.3 3.8 9.4 5.9 5.8 5.8 7 10.8 7 29 0 18-1.1 22.7-6.6 28.4-5.4 5.5-8.9 7-17 7.1-6.1 0-7.7-.4-11.9-3-3.1-1.9-6.1-4.9-8-7.9l-3-4.9-.3-18.3c-.3-16.8-.2-18.5 1.8-23.2 2.8-6.4 6.3-9.7 13.6-12.7 7.2-3 7.9-3 15-.4zm171.3-.5c6.2 1.8 12.7 7.3 15.2 12.9 1.6 3.4 1.9 6.7 1.9 22.5 0 21.2-.8 24.1-7.9 30.1-11.8 10.2-28.8 6.7-36.4-7.5-2-3.8-2.2-5.5-2.2-22.6s.2-18.8 2.2-22.6c3.1-5.8 7.9-10.1 13.7-12.3 6.3-2.5 7-2.5 13.5-.5zm-230.3 41.1l14.2.6.4 10.3c.4 9 .9 11.1 3.6 16.7 3.8 7.7 11.1 14.8 19 18.5 5 2.3 6.9 2.7 15.2 2.7 8.3-.1 10.2-.4 15.3-2.9 7.6-3.7 15.1-11.2 18.5-18.3 2.2-4.8 2.8-7.7 3.2-16.3l.5-10.5 48.6-.3 48.7-.2.4 10.7c.3 8.2.9 11.9 2.5 15.5 13.4 29.5 54.2 30.2 68.5 1.1 2.7-5.6 3.2-7.7 3.6-16.9l.5-10.4h46.4l.6 31.7c.4 17.4.7 86.5.7 153.5V430H83V276.7c0-84.4.3-153.7.7-154 .8-.9 14.7-.9 32.9 0z"/><path d="M107.7 208.1c-1.6 1.3-1.7 6.9-1.5 99.4l.3 98h297l.3-97.9c.1-53.9-.1-98.3-.6-98.8-.4-.4-66.6-1-147.2-1.4-123-.5-146.8-.4-148.3.7zm197.7 27.5c1.4.5 1.6 2.9 1.6 16.5V268l-18.7-.2-18.8-.3-.3-15.4c-.2-11.7.1-15.6 1-16.3 1.5-.9 32.8-1.1 35.2-.2zm59.4 16.1l.2 16.3h-37v-15.8c0-8.7.3-16.2.7-16.6.4-.3 8.6-.5 18.2-.4l17.6.3.3 16.2zM244 252v16h-37v-32h37v16zm-62.2 56.7l.2 16.3h-37v-15.8c0-8.7.3-16.2.7-16.6.4-.3 8.6-.5 18.2-.4l17.6.3.3 16.2zm62 0l.2 16.3h-37v-33l18.3.2 18.2.3.3 16.2zm63 .1l.2 16.2-18.7-.2-18.8-.3-.3-15c-.1-8.2 0-15.5.2-16.2.4-1.1 4.4-1.3 18.8-1.1l18.3.3.3 16.3zm58-.1l.2 16.3h-37v-33l18.3.2 18.2.3.3 16.2zm-59 42.1c.9.2 1.2 4.2 1.2 16.2v16l-18.7-.2-18.8-.3-.3-15.7-.3-15.7 14.8-.3c14.4-.3 19.5-.3 22.1 0zm59 15.9l.2 16.3h-37v-15.8c0-8.7.3-16.2.7-16.6.4-.3 8.6-.5 18.2-.4l17.6.3.3 16.2zM182 367v16h-37v-32h37v16zm62 0v16h-37v-32h37v16z"/></svg>